<svg id="svg" version="1.1" width="400" height="400" xmlns="http://www.w3.org/2000/svg" xmlns:xlink="http://www.w3.org/1999/xlink" ><g id="svgg"><path id="path0" d="M179.781 5.579 C 16.465 23.336,-53.757 221.780,62.232 337.768 C 185.002 460.538,395.004 373.597,395.004 200.000 C 395.004 84.363,294.039 -6.844,179.781 5.579 M235.486 16.361 C 366.805 42.539,429.212 192.362,355.286 303.966 C 282.380 414.029,117.620 414.029,44.714 303.966 C -33.048 186.572,39.582 31.169,180.328 13.798 C 190.817 12.504,223.831 14.037,235.486 16.361 M191.128 33.607 C 190.746 36.041,191.441 65.722,191.973 69.672 C 192.927 76.760,195.628 75.878,195.628 68.479 C 195.628 51.014,194.147 32.787,192.727 32.787 C 191.918 32.787,191.199 33.156,191.128 33.607 M198.536 46.677 C 197.430 68.365,197.574 73.224,199.324 73.224 C 200.431 73.224,201.043 70.724,201.614 63.869 L 202.393 54.513 208.407 55.265 C 213.908 55.952,214.388 55.841,214.031 53.964 C 213.719 52.322,212.498 51.847,207.913 51.582 C 201.545 51.215,201.194 50.409,202.901 40.077 L 203.593 35.893 209.173 36.252 C 213.565 36.535,214.754 36.263,214.754 34.973 C 214.754 33.699,213.023 33.262,207.002 33.016 L 199.249 32.698 198.536 46.677 M180.350 36.885 C 180.369 39.652,181.613 49.716,183.083 59.016 C 183.543 61.925,181.910 59.704,176.265 49.741 C 169.283 37.418,164.949 32.830,165.078 37.898 C 165.346 48.452,170.235 75.982,171.898 76.302 C 174.205 76.747,174.228 75.273,172.145 60.698 C 170.165 46.840,170.065 46.831,178.165 61.242 C 184.315 72.184,187.073 75.586,188.576 74.083 C 189.022 73.637,185.756 46.716,184.130 37.432 C 183.351 32.984,180.318 32.546,180.350 36.885 M226.738 36.013 C 220.220 38.654,214.298 68.919,219.399 73.516 C 227.697 80.994,233.891 76.078,237.257 59.345 C 240.635 42.554,239.998 38.362,233.740 36.181 C 229.781 34.801,229.731 34.799,226.738 36.013 M152.950 40.164 C 152.919 41.216,152.933 48.716,152.981 56.831 L 153.068 71.585 144.307 58.470 C 136.411 46.649,132.240 42.322,132.240 45.949 C 132.240 50.995,143.823 84.153,145.585 84.153 C 148.072 84.153,148.101 84.411,144.243 72.185 C 142.450 66.504,140.987 61.586,140.990 61.256 C 140.994 60.926,144.014 65.205,147.702 70.765 C 156.540 84.092,157.348 83.956,157.489 69.126 L 157.601 57.377 160.907 67.486 C 163.569 75.627,164.625 77.596,166.333 77.596 C 167.854 77.596,168.282 77.055,167.848 75.683 C 162.507 58.800,156.284 38.833,156.284 38.579 C 156.284 37.129,152.993 38.694,152.950 40.164 M234.802 41.257 C 235.960 43.474,235.814 45.166,233.315 58.470 C 231.014 70.723,230.283 72.131,226.230 72.131 C 220.271 72.131,220.033 57.023,225.769 42.896 C 227.443 38.773,232.980 37.768,234.802 41.257 M248.764 44.225 C 246.038 47.167,238.218 68.773,238.239 73.307 C 238.270 80.330,248.259 84.149,253.331 79.078 C 256.369 76.039,264.481 54.823,264.481 49.914 C 264.481 43.207,253.418 39.204,248.764 44.225 M257.680 46.510 C 262.825 50.114,253.936 77.596,247.626 77.596 C 241.690 77.596,241.417 74.284,246.156 59.825 C 250.772 45.743,252.966 43.208,257.680 46.510 M264.754 66.514 C 254.186 86.822,254.672 84.658,260.066 87.409 C 269.499 92.222,273.183 89.814,281.308 73.519 C 287.880 60.341,287.960 56.926,281.803 52.466 C 274.768 47.369,274.679 47.442,264.754 66.514 M115.301 53.721 C 108.770 57.293,108.902 61.614,115.954 75.121 C 123.018 88.650,124.890 90.710,130.124 90.710 C 140.542 90.710,141.721 83.970,133.960 68.788 C 126.076 53.369,121.985 50.065,115.301 53.721 M280.180 55.817 C 284.020 58.837,283.911 59.547,277.718 71.878 C 271.055 85.145,269.076 87.149,264.509 85.257 C 260.181 83.465,260.060 83.987,268.579 67.698 C 276.743 52.089,276.178 52.668,280.180 55.817 M123.191 58.197 C 131.950 67.723,137.210 85.599,131.663 86.991 C 124.821 88.708,110.701 60.393,116.667 56.918 C 119.521 55.256,120.700 55.487,123.191 58.197 M253.255 119.399 C 221.292 157.963,219.997 160.223,223.135 171.958 L 224.413 176.735 213.707 192.466 C 207.819 201.118,202.263 209.043,201.360 210.078 C 199.367 212.361,200.183 213.305,185.414 191.651 L 174.874 176.198 176.635 171.984 C 185.597 150.534,155.496 110.383,130.452 110.383 C 122.539 110.383,120.873 112.861,121.012 124.430 C 121.342 151.961,142.913 180.328,163.517 180.328 L 169.309 180.328 182.468 198.755 C 189.706 208.890,195.628 217.525,195.628 217.945 C 195.628 218.365,190.615 225.442,184.486 233.671 C 173.736 248.109,164.144 258.433,146.005 275.091 L 137.427 282.969 137.913 288.752 C 138.807 299.374,140.367 301.107,148.945 301.006 C 158.915 300.888,160.364 299.347,167.287 281.508 C 174.477 262.980,196.552 224.015,199.837 224.052 C 200.587 224.060,211.653 240.847,220.035 254.692 C 222.780 259.227,227.780 270.046,231.147 278.736 C 238.497 297.710,240.500 300.166,249.472 301.211 C 257.380 302.132,259.466 300.537,261.347 292.128 C 263.162 284.021,261.404 280.976,248.725 270.269 C 234.742 258.460,204.459 223.000,204.085 217.997 C 204.054 217.582,209.884 208.955,217.041 198.825 L 230.055 180.409 234.735 180.368 C 245.684 180.274,248.199 177.489,269.284 142.104 C 289.916 107.480,287.016 108.005,261.891 143.443 C 253.049 155.915,245.289 166.120,244.648 166.120 C 242.782 166.120,243.701 164.618,260.698 139.891 C 276.067 117.530,279.052 112.507,276.903 112.617 C 276.382 112.643,267.872 123.961,257.991 137.766 C 234.782 170.195,232.689 168.950,255.132 136.065 C 264.481 122.366,272.131 110.696,272.131 110.132 C 272.131 107.168,267.983 112.135,252.240 133.946 C 242.723 147.134,234.452 158.087,233.861 158.288 C 231.315 159.151,233.549 155.295,246.228 136.942 C 268.022 105.398,266.942 107.104,265.109 107.104 C 264.194 107.104,258.860 112.637,253.255 119.399 M70.089 283.703 C 61.393 289.513,58.023 292.340,58.830 293.147 C 59.637 293.954,61.607 293.256,65.410 290.815 L 70.839 287.332 73.621 290.114 C 76.794 293.287,80.384 293.664,83.910 291.195 C 89.064 287.585,85.942 290.809,76.960 298.373 C 70.273 304.004,67.919 306.607,68.756 307.445 C 69.594 308.282,70.795 307.838,72.944 305.894 C 78.851 300.551,79.635 300.158,81.421 301.639 C 84.124 303.883,83.305 306.628,78.689 310.799 C 73.792 315.223,73.487 315.849,76.230 315.842 C 78.679 315.835,86.339 308.843,86.339 306.613 C 86.339 305.669,87.270 304.918,88.441 304.918 C 91.966 304.918,97.268 299.659,97.268 296.162 C 97.268 291.090,92.096 285.735,89.481 288.101 C 87.242 290.128,86.846 289.475,88.472 286.437 C 89.664 284.211,85.902 275.410,83.758 275.410 C 83.066 275.410,76.914 279.142,70.089 283.703 M314.754 277.086 C 314.754 278.007,316.015 281.250,317.557 284.292 L 320.360 289.823 313.021 289.447 C 301.903 288.877,302.327 291.427,313.512 292.403 C 321.138 293.068,323.027 293.690,328.529 297.343 C 334.314 301.185,336.612 301.810,336.612 299.544 C 336.612 299.063,333.913 296.878,330.613 294.687 C 325.690 291.418,323.924 289.334,320.763 283.057 C 317.094 275.771,314.754 273.446,314.754 277.086 M84.843 282.698 C 85.593 285.687,82.435 289.617,79.283 289.617 C 76.698 289.617,73.590 285.196,75.433 284.138 C 76.322 283.628,78.033 282.454,79.235 281.530 C 82.428 279.077,84.018 279.408,84.843 282.698 M170.492 297.864 L 170.492 306.111 177.869 305.788 C 186.492 305.410,188.987 301.597,183.126 297.757 C 181.587 296.749,180.328 294.996,180.328 293.863 C 180.328 291.408,182.319 291.117,183.211 293.443 C 183.557 294.344,184.280 295.082,184.816 295.082 C 185.353 295.082,185.792 294.344,185.792 293.443 C 185.792 292.541,186.530 291.803,187.432 291.803 C 188.721 291.803,189.071 293.321,189.071 298.907 C 189.071 302.914,189.547 306.011,190.164 306.011 C 190.780 306.011,191.257 302.914,191.257 298.907 C 191.257 293.450,191.622 291.803,192.832 291.803 C 193.698 291.803,194.710 291.311,195.082 290.710 C 195.517 290.006,191.268 289.617,183.125 289.617 L 170.492 289.617 170.492 297.864 M201.731 290.437 C 200.429 291.739,201.149 295.082,202.732 295.082 C 203.634 295.082,204.372 294.344,204.372 293.443 C 204.372 292.541,204.863 291.803,205.464 291.803 C 207.343 291.803,206.667 294.509,203.825 298.361 C 199.092 304.776,199.903 306.064,208.470 305.742 L 215.847 305.464 216.177 299.727 C 216.616 292.113,218.579 292.336,218.579 300.000 C 218.579 305.971,220.374 308.289,221.541 303.825 C 221.858 302.615,223.032 301.639,224.171 301.639 C 225.501 301.639,226.230 302.413,226.230 303.825 C 226.230 305.027,226.721 306.011,227.322 306.011 C 227.954 306.011,228.415 302.550,228.415 297.814 C 228.415 288.778,227.572 287.856,224.169 293.169 L 221.895 296.721 221.876 293.169 C 221.858 289.643,219.570 288.223,218.000 290.763 C 217.554 291.484,216.821 291.531,216.023 290.890 C 214.640 289.779,202.766 289.402,201.731 290.437 M93.954 296.089 C 94.056 300.639,86.930 303.346,84.034 299.857 C 82.744 298.302,83.096 297.607,86.797 294.408 C 91.171 290.627,93.846 291.255,93.954 296.089 M177.314 293.094 C 176.847 294.882,177.587 296.226,180.270 298.467 C 182.239 300.110,183.520 301.988,183.117 302.640 C 182.049 304.369,180.328 304.089,180.328 302.186 C 180.328 301.284,179.533 300.546,178.561 300.546 C 177.385 300.546,176.970 301.217,177.319 302.552 C 177.741 304.166,177.339 304.461,175.260 304.064 C 171.864 303.415,171.769 299.735,175.137 299.256 C 176.489 299.064,177.596 298.415,177.596 297.814 C 177.596 297.213,176.489 296.564,175.137 296.372 C 173.593 296.153,172.678 295.266,172.678 293.989 C 172.678 292.749,173.637 291.770,175.137 291.482 C 176.489 291.221,177.673 290.941,177.767 290.859 C 177.861 290.777,177.657 291.783,177.314 293.094 M214.208 298.425 C 214.208 301.395,213.716 303.825,213.115 303.825 C 212.514 303.825,212.022 301.091,212.022 297.750 C 212.022 293.978,212.436 291.930,213.115 292.350 C 213.716 292.721,214.208 295.455,214.208 298.425 M300.038 296.288 C 297.913 298.154,296.175 300.038,296.175 300.475 C 296.175 301.911,317.939 320.219,319.646 320.219 C 321.278 320.219,322.102 318.061,320.492 318.003 C 317.688 317.902,311.498 310.197,312.586 308.163 C 314.258 305.039,318.250 305.524,321.858 309.290 C 324.889 312.453,327.869 313.600,327.869 311.603 C 327.869 309.933,319.211 302.732,317.204 302.732 C 316.140 302.732,314.662 301.320,313.882 299.556 C 312.729 296.951,307.027 292.896,304.518 292.896 C 304.179 292.896,302.163 294.423,300.038 296.288 M309.084 298.403 C 314.910 303.831,310.466 309.421,304.384 304.315 C 300.128 300.742,300.099 300.667,302.118 298.435 C 304.683 295.601,306.069 295.594,309.084 298.403 M208.743 300.546 C 208.743 303.097,208.257 303.825,206.557 303.825 C 203.881 303.825,203.845 303.321,206.284 299.967 C 208.716 296.623,208.743 296.630,208.743 300.546 M89.722 309.405 L 79.444 320.391 83.320 324.267 C 85.643 326.590,87.720 327.820,88.502 327.336 C 89.411 326.775,88.782 325.472,86.434 323.049 L 83.061 319.569 87.217 315.511 L 91.372 311.453 94.487 314.704 C 96.201 316.492,98.062 317.671,98.623 317.324 C 99.184 316.977,98.125 315.127,96.270 313.213 L 92.897 309.733 97.053 305.675 L 101.208 301.616 104.276 304.818 C 107.813 308.510,108.172 307.591,98.142 320.476 C 94.055 325.727,90.710 330.522,90.710 331.132 C 90.710 333.928,93.977 331.698,98.291 325.956 C 100.888 322.500,102.649 320.656,102.204 321.858 C 101.759 323.060,100.353 326.840,99.080 330.259 C 95.943 338.681,96.986 338.977,106.175 332.272 L 114.046 326.529 108.360 333.674 C 105.077 337.800,103.149 341.112,103.796 341.512 C 105.530 342.584,106.485 341.641,115.460 329.988 C 126.245 315.983,126.842 316.840,116.983 332.173 C 110.073 342.920,108.664 346.448,111.283 346.448 C 111.708 346.448,114.688 342.268,117.906 337.158 C 125.256 325.488,125.967 325.341,120.029 336.720 C 114.517 347.283,115.166 351.073,122.595 351.698 C 127.128 352.080,128.022 351.094,135.010 338.009 C 140.739 327.280,140.725 328.490,134.950 343.228 C 129.456 357.248,129.359 357.677,131.818 357.184 C 132.808 356.985,134.717 353.958,136.175 350.273 L 138.769 343.716 138.109 352.186 C 137.273 362.895,138.708 363.274,145.355 354.098 C 151.214 346.011,151.289 346.010,148.011 354.077 C 145.039 361.392,144.707 363.934,146.725 363.934 C 147.974 363.934,158.470 338.717,158.470 335.715 C 158.470 332.528,155.236 335.133,149.194 343.189 C 145.594 347.987,142.477 351.913,142.265 351.913 C 141.795 351.913,143.158 333.454,143.801 331.109 C 144.075 330.108,142.966 328.667,141.049 327.535 L 137.837 325.638 133.781 333.037 C 125.015 349.025,124.301 349.966,121.684 348.962 C 119.019 347.940,120.152 343.571,125.683 333.545 C 131.553 322.905,132.051 321.311,129.508 321.311 C 128.607 321.311,127.869 320.877,127.869 320.346 C 127.869 319.815,127.008 319.077,125.956 318.706 C 124.904 318.335,123.496 317.767,122.828 317.445 C 122.159 317.122,117.561 319.861,112.611 323.531 C 101.711 331.613,102.008 331.852,107.124 319.126 L 111.297 308.743 106.236 303.552 C 99.977 297.132,101.813 296.481,89.722 309.405 M290.437 306.468 C 284.195 312.126,284.244 311.243,289.493 323.343 L 293.739 333.135 284.517 325.596 C 275.457 318.190,275.247 318.089,272.590 319.830 C 270.159 321.423,270.035 321.837,271.370 323.916 C 272.187 325.188,275.479 330.410,278.685 335.519 C 285.750 346.778,286.525 347.685,288.197 346.651 C 289.113 346.085,287.389 342.552,282.485 334.942 C 278.622 328.948,275.450 323.644,275.436 323.154 C 275.421 322.665,280.260 326.231,286.188 331.078 C 301.602 343.681,301.788 343.537,294.037 324.986 L 288.620 312.022 298.221 322.123 L 307.821 332.225 312.453 328.261 C 315.712 325.470,316.741 323.954,315.926 323.139 C 315.111 322.324,313.772 322.934,311.404 325.198 L 308.040 328.415 304.127 324.151 L 300.214 319.887 303.669 317.048 C 305.569 315.486,307.119 313.839,307.114 313.388 C 307.094 311.714,304.404 312.652,301.644 315.296 L 298.796 318.024 294.684 313.813 L 290.571 309.601 294.076 306.652 C 296.128 304.925,297.177 303.300,296.605 302.732 C 296.035 302.166,293.469 303.720,290.437 306.468 M253.552 329.693 C 250.246 331.200,247.405 332.566,247.239 332.729 C 246.626 333.333,258.734 360.015,259.779 360.363 C 262.112 361.141,271.448 356.257,270.136 354.945 C 269.182 353.991,267.965 354.117,265.147 355.460 L 261.420 357.238 259.226 352.169 L 257.032 347.100 261.491 345.104 C 267.404 342.457,265.650 340.009,259.639 342.521 L 255.603 344.207 253.913 340.136 C 252.984 337.897,252.013 335.716,251.756 335.288 C 251.499 334.860,253.159 333.556,255.446 332.389 L 259.602 330.269 266.481 342.714 L 273.360 355.159 278.679 352.464 C 284.467 349.531,285.910 348.081,284.135 346.983 C 283.504 346.594,281.221 347.317,279.061 348.592 C 276.901 349.866,275.030 350.766,274.903 350.591 C 274.776 350.416,271.769 344.986,268.221 338.525 C 264.672 332.063,261.273 326.816,260.666 326.866 C 260.059 326.915,256.858 328.187,253.552 329.693 M236.885 335.696 C 233.114 337.074,233.091 336.746,238.078 352.459 L 242.240 365.574 245.782 365.405 C 253.878 365.019,255.296 359.657,250.817 346.366 C 247.086 335.293,244.149 333.044,236.885 335.696 M167.816 338.952 C 167.009 341.289,162.845 364.266,162.843 366.393 C 162.839 371.239,165.917 367.893,167.129 361.735 L 168.421 355.165 172.462 355.451 C 177.889 355.836,178.241 353.768,172.928 352.706 L 168.695 351.861 169.778 346.577 L 170.860 341.294 175.594 341.827 C 178.542 342.159,180.328 341.923,180.328 341.199 C 180.328 338.892,168.566 336.779,167.816 338.952 M247.199 346.448 C 250.843 356.617,251.027 360.176,247.994 361.799 C 245.097 363.349,245.625 364.219,241.210 350.594 C 237.329 338.617,237.399 337.601,242.077 338.044 C 243.746 338.202,244.956 340.186,247.199 346.448 M212.139 340.888 C 210.845 341.707,210.919 344.105,212.627 356.824 L 214.639 371.795 219.039 371.091 C 227.598 369.723,229.470 362.010,225.081 346.188 C 223.520 340.557,216.925 337.857,212.139 340.888 M182.708 341.933 C 178.942 344.321,177.761 366.633,181.234 369.776 C 188.044 375.939,192.846 370.553,194.030 355.426 C 195.034 342.584,190.397 337.058,182.708 341.933 M197.718 343.266 C 194.668 346.315,194.913 366.973,198.035 370.091 C 205.313 377.359,211.430 370.304,210.481 355.738 C 209.562 341.635,204.396 336.587,197.718 343.266 M190.170 345.367 C 193.179 350.988,189.502 368.677,185.445 368.099 C 183.163 367.774,183.069 367.296,183.256 357.035 C 183.491 344.206,186.674 338.834,190.170 345.367 M220.555 344.555 C 223.168 347.704,224.604 365.194,222.382 366.818 C 218.550 369.620,217.832 368.575,216.457 358.197 C 215.720 352.637,214.860 346.981,214.544 345.628 C 213.886 342.807,218.431 341.996,220.555 344.555 M205.898 346.175 C 208.436 354.524,206.759 369.365,203.279 369.365 C 199.556 369.365,196.814 349.740,200.000 345.901 C 201.847 343.676,205.186 343.831,205.898 346.175 " stroke="none" fill="#ffffff" fill-rule="evenodd"></path></g></svg>
